<svg width="119" height="20" viewBox="0 0 119 20" fill="none" xmlns="http://www.w3.org/2000/svg">
<path d="M102.287 10.2102C102.249 10.1527 102.196 10.1057 102.135 10.0733C102.073 10.0409 102.005 10.0242 101.936 10.0246H79.6263C79.5567 10.0241 79.488 10.0409 79.4265 10.0735C79.365 10.106 79.3125 10.1533 79.2736 10.211C79.2354 10.2678 79.2123 10.3334 79.2065 10.4016C79.2007 10.4698 79.2125 10.5384 79.2407 10.6008L82.7689 19.7546C82.8027 19.8283 82.8571 19.8906 82.9255 19.9341C82.9939 19.9777 83.0733 20.0006 83.1544 20.0001C83.2363 19.9999 83.3164 19.9759 83.3848 19.9309C83.4533 19.886 83.5072 19.8221 83.54 19.747L86.9702 13.4701H100.76C100.842 13.4706 100.922 13.4475 100.99 13.4036C101.059 13.3598 101.113 13.297 101.147 13.2229L102.318 10.5966C102.346 10.5348 102.358 10.467 102.352 10.3995C102.347 10.3319 102.325 10.2668 102.287 10.2102Z" fill="#C1BFBF"/>
<path d="M101.801 6.06557L99.4747 19.1425C99.4668 19.2503 99.4817 19.3586 99.5183 19.4603C99.555 19.5621 99.6125 19.655 99.6873 19.7331C99.7634 19.8131 99.855 19.8768 99.9565 19.9203C100.058 19.9639 100.167 19.9862 100.278 19.9862H105.831L104.666 13.5447L101.801 6.06557Z" fill="#1545DE"/>
<path d="M117.688 16.0922H117.469C117.44 11.9034 117.3 10.767 116.663 10.0861C115.576 9.29549 114.389 8.65342 113.132 8.17689C112.547 7.91028 111.885 7.60825 111.778 7.52894C111.52 7.27162 110.286 5.05193 109.624 3.85897C109.347 3.36121 109.105 2.92502 108.941 2.63901C108.576 1.80121 107.958 1.09809 107.175 0.627514C106.392 0.156933 105.481 -0.057696 104.57 0.013503H96.5172C96.446 0.0136082 96.376 0.0315014 96.3136 0.0655373C96.2511 0.0995732 96.1981 0.148675 96.1595 0.208394C96.1206 0.268559 96.0972 0.33738 96.0913 0.408756C96.0854 0.480131 96.0972 0.551858 96.1257 0.617575L104.405 19.7284C104.438 19.8052 104.493 19.8706 104.563 19.9167C104.632 19.9627 104.714 19.9873 104.798 19.9874H106.395C106.507 19.987 106.615 19.9426 106.694 19.8638C106.774 19.7849 106.82 19.6779 106.822 19.5656C106.822 18.5811 107.213 17.6369 107.91 16.9407C108.606 16.2446 109.55 15.8535 110.534 15.8535C111.519 15.8535 112.463 16.2446 113.159 16.9407C113.855 17.6369 114.246 18.5811 114.246 19.5656C114.248 19.6779 114.294 19.7849 114.374 19.8638C114.454 19.9426 114.562 19.987 114.674 19.9874H117.049C117.105 19.9872 117.161 19.9759 117.213 19.954C117.265 19.9322 117.313 19.9003 117.352 19.8602C117.392 19.8201 117.424 19.7725 117.445 19.7202C117.466 19.6679 117.477 19.612 117.477 19.5555C117.477 19.218 117.477 18.9016 117.477 18.5912H117.688C117.802 18.5905 117.911 18.5446 117.991 18.4637C118.071 18.3827 118.116 18.2732 118.115 18.1592V16.5242C118.116 16.4102 118.071 16.3007 117.991 16.2197C117.911 16.1387 117.802 16.0929 117.688 16.0922ZM107.016 8.33634H103.346C103.206 8.33745 103.069 8.29259 102.957 8.20862C102.845 8.12465 102.763 8.00622 102.725 7.87148L101.464 3.91043C101.439 3.81774 101.436 3.72041 101.455 3.62632C101.475 3.53223 101.516 3.44402 101.576 3.36879C101.636 3.29261 101.713 3.23105 101.801 3.18869C101.888 3.14634 101.985 3.12427 102.082 3.12413H104.34C104.696 3.13989 105.045 3.22729 105.366 3.38111C105.687 3.53493 105.973 3.75198 106.208 4.01926C107.157 5.02321 107.676 6.35854 107.653 7.73986C107.644 7.90204 107.572 8.05432 107.453 8.1653C107.335 8.27628 107.178 8.33749 107.016 8.33634Z" fill="#1545DE"/>
<path d="M93.726 0.209066C93.6859 0.150338 93.632 0.102326 93.5691 0.069235C93.5062 0.0361437 93.4361 0.0189754 93.3649 0.0192347H75.8407C75.7701 0.0190403 75.7005 0.0359811 75.6379 0.0686042C75.5753 0.101227 75.5216 0.148558 75.4813 0.20653C75.4419 0.263801 75.4176 0.330108 75.4107 0.399284C75.4037 0.468459 75.4144 0.538268 75.4416 0.60222L76.449 3.29775C76.4829 3.37518 76.5388 3.44097 76.6097 3.487C76.6806 3.53303 76.7635 3.55728 76.848 3.55676H91.9215C92.0049 3.5573 92.0868 3.53368 92.1571 3.48878C92.2275 3.44387 92.2833 3.37959 92.318 3.30366L93.7606 0.608116C93.7894 0.544175 93.8013 0.473936 93.7952 0.404086C93.7892 0.334235 93.7654 0.267105 93.726 0.209066Z" fill="#C1BFBF"/>
<path d="M95.6182 5.18265C95.5781 5.12393 95.5242 5.07591 95.4613 5.04282C95.3983 5.00973 95.3282 4.99256 95.2571 4.99282H77.7329C77.6623 4.99263 77.5927 5.00957 77.5301 5.04219C77.4675 5.07481 77.4138 5.12215 77.3735 5.18012C77.3341 5.23739 77.3098 5.3037 77.3028 5.37287C77.2959 5.44205 77.3066 5.51185 77.3338 5.57581L78.3411 8.27133C78.3751 8.34876 78.431 8.41456 78.5019 8.46059C78.5728 8.50661 78.6556 8.53087 78.7402 8.53035H93.8136C93.8971 8.53088 93.9789 8.50728 94.0493 8.46238C94.1196 8.41747 94.1755 8.35317 94.2102 8.27724L95.6528 5.58172C95.6815 5.51776 95.6934 5.44752 95.6873 5.37769C95.6813 5.30785 95.6575 5.24072 95.6182 5.18265Z" fill="#C1BFBF"/>
<path d="M11.6083 4.22008H9.60468C9.51998 4.21958 9.43676 4.24227 9.36404 4.2857C9.29132 4.32913 9.23187 4.39164 9.19214 4.46644L5.48009 11.598L2.91709 4.52043C2.88391 4.43172 2.82428 4.35534 2.74627 4.30162C2.66826 4.24791 2.57563 4.21944 2.48092 4.22008H0.462916C0.388855 4.2199 0.315815 4.23733 0.249809 4.27092C0.183803 4.30451 0.126724 4.35331 0.0832767 4.41329C0.0406931 4.4723 0.0133937 4.54094 0.0038243 4.61308C-0.00574511 4.68522 0.00271168 4.75862 0.0284376 4.82669L3.97502 15.2747C4.00902 15.3621 4.06877 15.4372 4.14635 15.4899C4.22393 15.5426 4.3157 15.5706 4.4095 15.57H5.99134C6.0751 15.5705 6.15743 15.5484 6.22962 15.5059C6.30181 15.4634 6.36115 15.4022 6.40135 15.3287L12.0192 4.88068C12.0561 4.8123 12.0742 4.73536 12.0717 4.6577C12.0692 4.58004 12.0461 4.50444 12.0049 4.4386C11.9629 4.3714 11.9044 4.31605 11.835 4.27781C11.7656 4.23957 11.6876 4.21969 11.6083 4.22008Z" fill="#1545DE"/>
<path d="M21.0675 4.21999H13.8965C13.7813 4.21866 13.6699 4.26071 13.5844 4.33779C13.4989 4.41486 13.4456 4.52129 13.435 4.63592L12.6065 15.084C12.6023 15.1456 12.611 15.2075 12.632 15.2656C12.6531 15.3237 12.6861 15.3768 12.7288 15.4214C12.7725 15.467 12.8249 15.5032 12.8828 15.528C12.9408 15.5528 13.0032 15.5656 13.0663 15.5657H20.2213C20.3363 15.5671 20.4475 15.5251 20.533 15.4482C20.6185 15.3713 20.672 15.2651 20.6828 15.1506L20.8034 13.6531C20.8077 13.5915 20.7992 13.5297 20.7783 13.4716C20.7573 13.4134 20.7245 13.3603 20.6819 13.3156C20.6384 13.2699 20.586 13.2335 20.528 13.2086C20.47 13.1837 20.4076 13.1707 20.3444 13.1705H15.5871L15.7559 11.0056H20.2829C20.397 11.0069 20.5076 10.9655 20.5928 10.8895C20.678 10.8135 20.7317 10.7084 20.7435 10.5948L20.8793 9.09812C20.8849 9.03553 20.877 8.97247 20.8564 8.91313C20.8357 8.85379 20.8027 8.79951 20.7595 8.75388C20.716 8.70804 20.6637 8.6715 20.6057 8.64642C20.5477 8.62133 20.4853 8.60822 20.4221 8.60792H15.9507L16.1195 6.61856H20.9645C21.0805 6.61958 21.1926 6.57663 21.2782 6.49837C21.3638 6.42011 21.4166 6.31234 21.426 6.19672L21.5315 4.70004C21.5356 4.63831 21.5268 4.5764 21.5056 4.51828C21.4843 4.46017 21.4512 4.40714 21.4083 4.36258C21.3641 4.31698 21.3111 4.28082 21.2525 4.25631C21.1939 4.2318 21.131 4.21945 21.0675 4.21999Z" fill="#1545DE"/>
<path d="M30.9978 4.42596C30.2758 4.19571 29.5217 4.08179 28.7638 4.08849C27.6794 4.06588 26.6084 4.33047 25.6592 4.8554C24.7695 5.36613 24.0488 6.12638 23.5864 7.04219C23.091 8.04663 22.8442 9.1554 22.8667 10.2751C22.8446 11.2654 23.0665 12.2459 23.513 13.1301C23.9352 13.9398 24.5894 14.6051 25.3918 15.041C26.2604 15.4949 27.2297 15.7216 28.2096 15.7C28.9582 15.7037 29.7022 15.5834 30.4115 15.3439C31.0633 15.1334 31.6637 14.7885 32.1739 14.3315C32.2396 14.271 32.2855 14.1922 32.3057 14.1052C32.3259 14.0182 32.3193 13.9271 32.2869 13.8439L31.7444 12.4645C31.7184 12.399 31.6776 12.3405 31.6252 12.2933C31.5728 12.2462 31.5103 12.2118 31.4424 12.1928C31.374 12.1731 31.302 12.1692 31.2319 12.1813C31.1618 12.1934 31.0953 12.2213 31.0375 12.2628C30.2633 12.8734 29.3154 13.2226 28.3302 13.2601C27.9802 13.286 27.6289 13.2339 27.3015 13.1076C26.9741 12.9812 26.6789 12.7837 26.4371 12.5294C25.9467 11.8909 25.7067 11.0952 25.7621 10.292C25.7016 9.28893 25.9931 8.29617 26.5864 7.48511C26.8595 7.16308 27.2039 6.90917 27.5923 6.74353C27.9807 6.57789 28.4023 6.50509 28.8237 6.53092C29.2928 6.52331 29.7594 6.59989 30.2014 6.75703C30.6549 6.93791 31.0756 7.19214 31.4466 7.50957C31.4997 7.55311 31.5616 7.58454 31.628 7.60159C31.6945 7.61864 31.7639 7.62092 31.8313 7.60829C31.8983 7.59633 31.9617 7.56971 32.0172 7.53032C32.0726 7.49094 32.1186 7.43978 32.1519 7.3805L32.9197 6.00109C32.9691 5.91193 32.9863 5.80843 32.9683 5.70807C32.9504 5.6077 32.8983 5.51661 32.8209 5.45017C32.2878 4.9904 31.6678 4.64215 30.9978 4.42596Z" fill="#1545DE"/>
<path d="M43.4937 4.21999H34.5316C34.4164 4.21867 34.3048 4.26085 34.2193 4.33809C34.1338 4.41534 34.0805 4.52199 34.0701 4.63677L33.9503 6.1925C33.946 6.2541 33.9545 6.31594 33.9754 6.37405C33.9964 6.43216 34.0292 6.48527 34.0718 6.52997C34.1155 6.57543 34.1679 6.61163 34.2259 6.63641C34.2838 6.6612 34.3462 6.67406 34.4093 6.67423H37.4177L36.7344 15.0806C36.7301 15.1422 36.7386 15.204 36.7596 15.2621C36.7805 15.3202 36.8133 15.3733 36.8558 15.4181C36.8994 15.4638 36.9518 15.5002 37.0098 15.5251C37.0677 15.55 37.1302 15.563 37.1933 15.5632H39.1514C39.2664 15.5645 39.3777 15.5226 39.4632 15.4457C39.5487 15.3688 39.6021 15.2626 39.6129 15.1481L40.3021 6.67002H43.3688C43.484 6.67134 43.5955 6.62917 43.6811 6.55192C43.7666 6.47468 43.8199 6.36803 43.8303 6.25325L43.9509 4.69836C43.9554 4.63667 43.9468 4.57474 43.9257 4.5166C43.9046 4.45845 43.8715 4.4054 43.8286 4.36089C43.785 4.31624 43.7329 4.28076 43.6754 4.25657C43.6179 4.23237 43.5561 4.21993 43.4937 4.21999Z" fill="#1545DE"/>
<path d="M52.7987 4.74444C51.9047 4.29052 50.9124 4.06473 49.91 4.08721C48.8622 4.06647 47.8291 4.3363 46.9252 4.86678C46.0637 5.39159 45.3731 6.15541 44.9376 7.06538C44.4651 8.06843 44.2304 9.16699 44.2517 10.2756C44.2278 11.2725 44.4565 12.2592 44.9165 13.144C45.3554 13.9549 46.0259 14.6167 46.8425 15.0448C47.7312 15.4975 48.7181 15.7233 49.7152 15.7021C50.763 15.7228 51.7961 15.453 52.7 14.9225C53.5617 14.3976 54.2524 13.6338 54.6885 12.7239C55.1608 11.7205 55.3955 10.6217 55.3743 9.51288C55.3986 8.517 55.1733 7.53087 54.7188 6.64439C54.2834 5.83316 53.6145 5.1713 52.7987 4.74444ZM51.7256 12.3434C51.4855 12.6215 51.1916 12.8481 50.8617 13.0096C50.5318 13.1712 50.1726 13.2644 49.8057 13.2835C49.4388 13.3027 49.0719 13.2474 48.7269 13.1211C48.382 12.9948 48.0661 12.8 47.7984 12.5484C47.3055 11.9028 47.0654 11.0993 47.1235 10.289C47.0631 9.28227 47.3375 8.2838 47.9039 7.44925C48.1422 7.16978 48.4348 6.94173 48.7641 6.77897C49.0933 6.61621 49.4522 6.52214 49.819 6.50249C50.1857 6.48283 50.5526 6.538 50.8974 6.66465C51.2421 6.7913 51.5575 6.98678 51.8243 7.23918C52.3239 7.88669 52.5677 8.69542 52.5093 9.51118C52.5695 10.5161 52.2938 11.5124 51.7256 12.3434Z" fill="#1545DE"/>
<path d="M65.9836 11.7975C65.8682 11.4012 65.6745 11.032 65.4141 10.7117L65.3854 10.6788C65.8487 10.4771 66.2565 10.1665 66.5741 9.77357C67.0648 9.1262 67.3172 8.32939 67.2887 7.51758C67.3069 7.05818 67.2196 6.60072 67.0336 6.18028C66.8476 5.75983 66.5678 5.38756 66.2156 5.09202C65.3927 4.47133 64.3763 4.16254 63.3472 4.22052H58.5873C58.4722 4.21918 58.3608 4.26122 58.2753 4.3383C58.1898 4.41537 58.1364 4.52181 58.1258 4.63644L57.294 15.0836C57.2898 15.1453 57.2985 15.2072 57.3195 15.2653C57.3406 15.3234 57.3736 15.3765 57.4163 15.4211C57.46 15.4666 57.5124 15.5029 57.5703 15.5277C57.6283 15.5525 57.6907 15.5653 57.7538 15.5654H59.6815C59.7967 15.5669 59.9082 15.5249 59.9937 15.4478C60.0793 15.3707 60.1326 15.2642 60.143 15.1495L60.456 11.2221H61.8953C62.1675 11.2084 62.4394 11.256 62.6908 11.3614C62.7657 11.4051 62.8308 11.4637 62.882 11.5337C62.9333 11.6037 62.9696 11.6834 62.9886 11.768L64.0736 15.2456C64.1037 15.3391 64.163 15.4206 64.2426 15.4781C64.3223 15.5356 64.4182 15.5662 64.5165 15.5654H66.5741C66.6462 15.5656 66.7173 15.5492 66.7818 15.5173C66.8464 15.4853 66.9027 15.4388 66.9462 15.3815C66.9893 15.3252 67.0181 15.2594 67.0301 15.1896C67.0422 15.1198 67.0371 15.0481 67.0154 14.9807L65.9836 11.7975ZM62.8764 8.85649H60.6357L60.8188 6.58786H63.1321C64.3562 6.58786 64.5215 7.10924 64.5215 7.61882C64.5266 8.23132 64.3309 8.85649 62.8806 8.85649H62.8764Z" fill="#1545DE"/>
</svg>
